<svg xmlns="http://www.w3.org/2000/svg" xmlns:xlink="http://www.w3.org/1999/xlink" viewBox="0 0 219.4 178.63"><defs><linearGradient id="a" x1="657.08" y1="421.03" x2="657.08" y2="381.14" gradientUnits="userSpaceOnUse"><stop offset="0" stop-color="#ffe7a3"/><stop offset="0.5" stop-color="#ffca05"/><stop offset="1" stop-color="#faac18"/></linearGradient><linearGradient id="b" x1="722.86" y1="421.03" x2="722.86" y2="381.14" xlink:href="#a"/><linearGradient id="c" x1="792.18" y1="372.04" x2="792.18" y2="372.04" xlink:href="#a"/><linearGradient id="d" x1="810.98" y1="421.03" x2="810.98" y2="381.14" xlink:href="#a"/><linearGradient id="e" x1="842.77" y1="421.03" x2="842.77" y2="381.14" xlink:href="#a"/><linearGradient id="f" x1="688.46" y1="421.03" x2="688.46" y2="381.14" xlink:href="#a"/><linearGradient id="g" x1="750.66" y1="421.03" x2="750.66" y2="381.14" xlink:href="#a"/><linearGradient id="h" x1="782.21" y1="421.03" x2="782.21" y2="381.14" xlink:href="#a"/><radialGradient id="i" cx="749.9" cy="292.47" r="57.14" gradientUnits="userSpaceOnUse"><stop offset="0" stop-color="#f99f20"/><stop offset="0.5" stop-color="#f7911e"/><stop offset="1" stop-color="#f58020"/></radialGradient></defs><title>Odyssey Logo</title><g style="isolation:isolate"><g style="mix-blend-mode:overlay"><path d="M640.4,402.47l4.05-23.09c.92-5,3.61-7.34,8.47-7.34h14.94c4.86,0,6.8,2.38,5.88,7.34l-4,23.09c-.87,5-3.62,7.34-8.47,7.34h-15C641.43,409.81,639.54,407.44,640.4,402.47Zm18.45-1.08c.71,0,.92-.21,1.08-1l3.35-19c.11-.75-.06-1-.76-1h-7.17c-.7,0-1,.22-1.08,1l-3.35,19c-.16.76.06,1,.76,1Z" transform="translate(-640.2 -231.17)" style="fill:url(#a)"/><path d="M713.21,398.1,706,372h10.68l3.08,16,8.69-16H739.7L723.35,398.1l-2.05,11.71H711.16Z" transform="translate(-640.2 -231.17)" style="fill:url(#b)"/><path d="M792.18,372" transform="translate(-640.2 -231.17)" style="fill:url(#c)"/><path d="M802.47,372h21.41l2.25,8.42h-15l-1,5.88h12.62l-1.45,8.31H808.67l-1.18,6.74h16l-1.51,8.42H795.83Z" transform="translate(-640.2 -231.17)" style="fill:url(#d)"/><path d="M833.11,398.1,825.94,372h10.68l3.08,16,8.68-16H859.6L843.26,398.1l-2,11.71H831.06Z" transform="translate(-640.2 -231.17)" style="fill:url(#e)"/><path d="M699.78,372H677.66l-3.84,21.88,13.61-.08-3-2.91,1.88-10.47h6.19a2.5,2.5,0,0,1,2.66,2.89l-3.35,16a2.4,2.4,0,0,1-2.51,2H672.51L671,409.81h22.12c4.85,0,7.6-2.37,8.47-7.34l4-23.09C706.58,374.42,704.64,372,699.78,372Z" transform="translate(-640.2 -231.17)" style="fill:url(#f)"/><path d="M734.58,402.47l1.5-7.8,9.56,2.62-.59,3.45c-.17.76,0,1,.75,1h6.53c.75,0,1-.21,1.18-1l.54-3.29c.11-.75-.11-.91-.86-1.13l-9.33-2.75c-5-1.46-7.17-2.43-6.26-7.61l1.14-6.57c.91-5,3.61-7.34,8.46-7.34h13.65c4.85,0,6.79,2.37,5.88,7.34l-1.16,7.21-9.79-2.92.54-2.57c.11-.75-.06-1-.81-1h-5.83c-.7,0-1,.22-1.07,1l-.54,2.91c-.17.76,0,.92.86,1.19l9.38,2.7c5,1.4,7.18,2.42,6.26,7.6l-1.24,7c-.86,5-3.61,7.33-8.47,7.33h-14.4C735.61,409.8,733.72,407.43,734.58,402.47Z" transform="translate(-640.2 -231.17)" style="fill:url(#g)"/><path d="M766.13,402.47l1.6-7.8,9.45,2.62-.59,3.45c-.16.76,0,1,.76,1h6.52c.76,0,1-.21,1.19-1l.54-3.29c.1-.75-.11-.91-.87-1.13l-9.33-2.75c-5-1.46-7.17-2.43-6.25-7.61l1.13-6.57c.92-5,3.61-7.34,8.47-7.34h13.64c4.86,0,6.8,2.37,5.88,7.34l-1.1,7.38-9.85-2.58.54-3.08c.11-.75-.05-1-.81-1h-5.82c-.7,0-1,.22-1.08,1l-.54,2.91c-.16.76,0,.92.86,1.19l9.39,2.7c5,1.4,7.17,2.42,6.25,7.6l-1.24,7c-.86,5-3.61,7.33-8.46,7.33H772C767.15,409.8,765.27,407.43,766.13,402.47Z" transform="translate(-640.2 -231.17)" style="fill:url(#h)"/></g><path d="M746.94,310.43l2.59,42.94a.43.43,0,0,0,.85,0l2.51-42.8a16.56,16.56,0,0,1,15.32-15.18l34-2.57a.42.42,0,0,0,0-.84l-34.12-2.61A16.55,16.55,0,0,1,753,274.09l-2.58-42.52a.43.43,0,0,0-.85,0L747,274.25a16.56,16.56,0,0,1-15.16,15l-34.24,2.64a.43.43,0,0,0,0,.85l34.11,2.55A16.55,16.55,0,0,1,746.94,310.43Z" transform="translate(-640.2 -231.17)" style="fill:url(#i)"/><path d="M707.2,297.27l18.29,47.28a12.33,12.33,0,0,0,11.42,7.83h8.76l-.37-6.08h-8.39a6.19,6.19,0,0,1-5.75-3.94l-17.25-44.59-6.71-.5" transform="translate(-640.2 -231.17)" style="fill:#e5f4f7"/><path d="M763,232.42h-8.68l.36,6.07H763a6.21,6.21,0,0,1,5.75,3.95l17.21,44.49,6.71.51-18.25-47.2A12.34,12.34,0,0,0,763,232.42" transform="translate(-640.2 -231.17)" style="fill:#e5f4f7"/><path d="M792.64,297.35l-6.71.51-17.22,44.5A6.2,6.2,0,0,1,763,346.3H754.6l-.36,6.08H763a12.35,12.35,0,0,0,11.42-7.83l18.26-47.2" transform="translate(-640.2 -231.17)" style="fill:#e5f4f7"/><path d="M745.72,232.42h-8.81a12.32,12.32,0,0,0-11.42,7.82l-18.22,47.11,6.71-.52,17.18-44.39a6.2,6.2,0,0,1,5.75-3.95h8.45l.36-6.07" transform="translate(-640.2 -231.17)" style="fill:#e5f4f7"/><g style="opacity:0.55"><path d="M744.8,338h-4.27a2.19,2.19,0,0,1-2-1.4l-14.74-38.11-5-.38,15.52,40.14a6.81,6.81,0,0,0,6.29,4.31h4.55Z" transform="translate(-640.2 -231.17)" style="fill:#69c7bc"/><path d="M776.09,298.6l-14.72,38a2.19,2.19,0,0,1-2,1.4h-4.25l-.27,4.56h4.52a6.8,6.8,0,0,0,6.29-4.31l15.5-40Z" transform="translate(-640.2 -231.17)" style="fill:#69c7bc"/><path d="M723.83,286.07l14.66-37.9a2.2,2.2,0,0,1,2-1.39h4.34l.27-4.56h-4.61a6.79,6.79,0,0,0-6.29,4.31l-15.45,39.93Z" transform="translate(-640.2 -231.17)" style="fill:#69c7bc"/><path d="M755.15,246.78h4.18a2.2,2.2,0,0,1,2,1.39l14.7,38,5,.39-15.49-40a6.78,6.78,0,0,0-6.29-4.31h-4.46Z" transform="translate(-640.2 -231.17)" style="fill:#69c7bc"/></g><path d="M755.68,255.57l.28,4.64.16,2.69h0l.67,10.94A12.67,12.67,0,0,0,765.44,285h0c.29.1.58.19.89.27l.51.11.42.09h0c.35.06.72.11,1.08.15l1.46.11L758,255.12a4.22,4.22,0,0,0-2.5-2.43l.18,2.88Z" transform="translate(-640.2 -231.17)" style="fill:#69c7bc"/><path d="M768.48,299.18c-.4,0-.79.08-1.18.14h0c-.23,0-.45.09-.68.14l-.19,0a12.69,12.69,0,0,0-9.76,11.34l-1.08,18.53h0l-.16,2.77a4.23,4.23,0,0,0,2.57-2.45l11.84-30.6Z" transform="translate(-640.2 -231.17)" style="fill:#69c7bc"/><path d="M743.85,322.17l-.7-11.47a12.68,12.68,0,0,0-7.88-10.7h0c-.29-.12-.58-.22-.87-.32l-.11,0-.81-.23-.65-.13-.28-.06h0c-.36-.06-.71-.1-1.08-.13L730,299l11.88,30.7a4.24,4.24,0,0,0,2.58,2.46l-.6-10Z" transform="translate(-640.2 -231.17)" style="fill:#69c7bc"/><path d="M741.87,255.12l-11.79,30.47,1.49-.12a9.41,9.41,0,0,0,1-.13h0c.3-.05.61-.11.91-.18l.75-.22.16,0,.84-.31,0,0h0A12.71,12.71,0,0,0,743.25,274l1.1-18.62h0l.17-2.72A4.22,4.22,0,0,0,741.87,255.12Z" transform="translate(-640.2 -231.17)" style="fill:#69c7bc"/></g></svg>